# xmcd
#
# Track frame offsets: 
#        150
#        12905
#        25670
#        37685
#        52752
#        63797
#        83490
#        98985
#        113052
#        123350
#        141800
#        151890
#
# Disc length: 2243 seconds
#
# Revision: 0
# Processed by: cddbd v1.5.2PL0 Copyright (c) Steve Scherf et al.
# Submitted via: ExactAudioCopy v0.95a5
#
DISCID=7e08c10c
DTITLE=Snooks Eaglin and Friends - The Sonet Blues Story
DYEAR=1977
DGENRE=Blues
TTITLE0=Down Yonder
TTITLE1=No More Doggin'
TTITLE2=Talk To Your Daughter
TTITLE3=Going To The River
TTITLE4=Oh Red
TTITLE5=Yours Truly
TTITLE6=Travelling Mood
TTITLE7=St. Pete, Florida Blues
TTITLE8=A Teeny Bit Of Your Love
TTITLE9=Mustang Sally
TTITLE10=Let The Four Winds Blow
TTITLE11=San Jose
EXTD=
EXTT0=
EXTT1=
EXTT2=
EXTT3=
EXTT4=
EXTT5=
EXTT6=
EXTT7=
EXTT8=
EXTT9=
EXTT10=
EXTT11=
PLAYORDER=
